<svg width="96" height="120" viewBox="0 0 96 120" fill="none" xmlns="http://www.w3.org/2000/svg">
<g clip-path="url(#clip0_12:34)">
<path d="M47.9416 119.659L8.87655 108.843L0.170898 11.4637H95.8292L87.1146 108.828L47.9416 119.659Z" fill="#264DE4"/>
<path d="M79.6538 102.628L87.1006 19.4258H48V111.38L79.6538 102.628Z" fill="#2965F1"/>
<path d="M20.1283 55.5426L21.2014 67.4858H48.0001V55.5426H20.1283ZM17.9714 31.3693L19.06 43.3125H48.0001V31.3693H17.9714ZM48.0001 86.5604L47.9476 86.5742L34.6107 82.9827L33.758 73.4575H21.7365L23.4141 92.2102L47.945 99.0013L48.0001 98.9864V86.5604Z" fill="#EBEBEB"/>
<path d="M22.6836 -15H37.1874V-8.9508H28.7491V-2.9016H37.1881V3.14722H22.6836V-15ZM40.0885 -15H54.5927V-9.73986H46.154V-8.68791H54.5927V3.41049H40.0889V-2.11329H48.5276V-3.16525H40.0881V-15H40.0885ZM57.4938 -15H71.998V-9.73986H63.5593V-8.68791H71.998V3.41049H57.4938V-2.11329H65.9325V-3.16525H57.4942V-15H57.4938Z" fill="black"/>
<path d="M75.7955 55.5425L77.9572 31.3693H47.9589V43.3125H64.8332L63.7436 55.5425H47.9589V67.4857H62.7053L61.3149 82.9752L47.9585 86.5705V98.9957L72.5089 92.2102L72.6888 90.1923L75.5034 58.7496L75.7955 55.5425Z" fill="white"/>
</g>
<defs>
<clipPath id="clip0_12:34">
<rect width="96" height="120" fill="white"/>
</clipPath>
</defs>
</svg>
