<svg width="120" height="120" viewBox="0 0 120 120" fill="none" xmlns="http://www.w3.org/2000/svg">
<path d="M17.8472 106.759L8.46753 1.55719H111.533L102.143 106.743L59.9372 118.443L17.8472 106.759Z" fill="#E44D26"/>
<path d="M60 109.5L94.1044 100.044L102.128 10.1588H60V109.5Z" fill="#F16529"/>
<path d="M60 49.1766H42.9263L41.7469 35.9634H60V23.0616H27.646L27.9554 26.5228L31.126 62.0794H60V49.1766ZM60 82.6856L59.9429 82.7015L45.5738 78.8203L44.656 68.5312H31.7026L33.5101 88.7897L59.941 96.1265L60 96.1106V82.6856Z" fill="#EBEBEB"/>
<path d="M59.9551 49.1766V62.0794H75.8429L74.3457 78.8128L59.9551 82.6969V96.1209L86.4066 88.7897L86.6007 86.61L89.6326 52.6416L89.9466 49.1766H86.4704H59.9551ZM59.9551 23.0616V35.9634H91.1213L91.3801 33.0647L91.9688 26.5228L92.2773 23.0616H59.9551Z" fill="white"/>
</svg>
