<svg width="120" height="120" viewBox="0 0 120 120" fill="none" xmlns="http://www.w3.org/2000/svg">
<path d="M26.0232 19.1447C19.1307 29.0494 19.9885 41.9372 25.2544 52.4634L25.6398 53.2116L25.8863 53.6859L26.0401 53.9588L26.3148 54.45C26.4779 54.7378 26.6457 55.0238 26.8173 55.3116L27.1041 55.7841C27.2944 56.0897 27.4885 56.3934 27.6873 56.6963L27.9357 57.0797C28.2104 57.4894 28.4907 57.8972 28.7804 58.2994L28.8048 58.3303L28.9473 58.5225C29.1976 58.8675 29.4554 59.2088 29.7169 59.5472L30.0066 59.9156C30.2401 60.2091 30.4773 60.4997 30.7182 60.7913L30.9901 61.1156C31.3135 61.4963 31.6444 61.8769 31.981 62.2481L32.0007 62.2687L32.0391 62.3109C32.3682 62.67 32.7048 63.0216 33.0469 63.3731L33.3694 63.6984C33.6338 63.9647 33.9029 64.2262 34.1738 64.4869L34.5029 64.8C34.8657 65.1413 35.2313 65.4769 35.6054 65.8031L35.6223 65.8181L35.8144 65.9812C36.1435 66.2672 36.4782 66.5484 36.8157 66.8269L37.2301 67.1578C37.5057 67.3781 37.7841 67.5966 38.0644 67.8103L38.5116 68.1488C38.821 68.3766 39.1332 68.6006 39.4482 68.8209L39.7885 69.0628L39.8832 69.1303C40.1813 69.3366 40.4879 69.5344 40.7926 69.7322L41.1863 69.9947C41.6551 70.29 42.1304 70.5834 42.6104 70.8666L43.0041 71.0888C43.3576 71.2922 43.7129 71.4928 44.0729 71.6878L44.6644 71.9934L45.4294 72.3909L45.6057 72.4762L45.9188 72.6272C46.3191 72.8184 46.7232 73.0069 47.131 73.1888L47.3869 73.3031C47.8538 73.5075 48.3254 73.7034 48.8007 73.8919L49.1457 74.0269C49.5854 74.1975 50.0316 74.3634 50.4798 74.5209L50.6476 74.5791C51.1388 74.7516 51.6357 74.91 52.1354 75.0666L52.4944 75.1734C53.0026 75.3272 53.506 75.5091 54.0301 75.6066C87.361 81.6844 97.0426 55.5778 97.0426 55.5778C88.9107 66.1716 74.4779 68.9653 60.8026 65.8547C60.2841 65.7375 59.7816 65.5753 59.2763 65.4272L58.8957 65.3109C58.4026 65.16 57.9123 65.0016 57.4257 64.8328L57.2241 64.7606C56.7882 64.6069 56.3579 64.4456 55.9285 64.2797L55.5648 64.1372C55.0951 63.9516 54.6273 63.7575 54.166 63.5559L53.8866 63.4313C53.4901 63.2522 53.0973 63.0712 52.7063 62.8828L52.3651 62.7188C52.0585 62.5697 51.7557 62.4112 51.4519 62.2547L50.8435 61.935C50.4732 61.7381 50.1104 61.5319 49.7494 61.3219L49.3801 61.1166C48.8991 60.8325 48.4248 60.54 47.9551 60.2428L47.5707 59.9869C47.2304 59.7675 46.891 59.5434 46.5573 59.3128L46.2301 59.0831C45.9076 58.8563 45.5879 58.6247 45.2719 58.3913L44.8473 58.0697C44.5566 57.8475 44.2679 57.6234 43.9829 57.3938L43.5976 57.0844C43.2338 56.7863 42.8748 56.4844 42.5204 56.1759L42.4023 56.0775C42.0188 55.7409 41.6419 55.395 41.2698 55.0481L40.951 54.7406C40.6754 54.4791 40.4035 54.2147 40.1373 53.9428L39.8185 53.6241C39.4791 53.2772 39.1463 52.9256 38.8201 52.5684L38.7704 52.515C38.4254 52.1381 38.0879 51.7528 37.7579 51.3628L37.4926 51.0478C37.246 50.7516 37.0023 50.4497 36.7641 50.1469L36.4969 49.8141C36.2091 49.4419 35.9298 49.0706 35.6551 48.6937C28.0632 38.3372 25.3351 24.0534 31.4035 12.3234L26.0232 19.1447ZM47.4169 10.7991C42.4332 17.9709 42.7032 27.5737 46.5919 35.1581C47.2435 36.4294 47.9766 37.6641 48.796 38.8378C49.5423 39.9094 50.371 41.1825 51.3619 42.0422C51.721 42.4378 52.0969 42.8241 52.4804 43.2028L52.7748 43.4944C53.1469 43.8553 53.5257 44.2106 53.9166 44.5556L53.9635 44.5959L53.9748 44.6072C54.4079 44.9869 54.8551 45.3516 55.3088 45.7116L55.6116 45.9478C56.0673 46.2966 56.5313 46.6397 57.0076 46.9669L57.0479 46.9978L57.6854 47.4169L57.9873 47.6166C58.3276 47.835 58.6716 48.0469 59.0223 48.2503L59.1685 48.3366C59.4704 48.51 59.776 48.6806 60.0826 48.8475L60.4079 49.0163L61.0473 49.3481L61.1438 49.3922C61.5835 49.6078 62.026 49.8169 62.4788 50.0138L62.7732 50.1356C63.1351 50.2884 63.4998 50.4384 63.8673 50.5791L64.336 50.7516C64.6698 50.8753 65.0035 50.9888 65.341 51.1012L65.7948 51.2466C66.2738 51.3947 66.7482 51.5831 67.247 51.6666C92.9813 55.9294 98.9223 36.1153 98.9223 36.1153C93.5673 43.8291 83.1957 47.5088 72.1285 44.6362C71.6373 44.5069 71.1516 44.3662 70.6707 44.2153L70.2329 44.0738C69.8907 43.9641 69.5504 43.8459 69.2138 43.7231L68.7535 43.5516C68.3841 43.4091 68.0185 43.2619 67.6557 43.1081L67.3604 42.9834C66.9057 42.7856 66.4585 42.5766 66.0179 42.3591L65.3448 42.0169L64.9566 41.8172C64.6698 41.6616 64.3848 41.5003 64.1044 41.3353L63.901 41.22C63.5523 41.0166 63.2091 40.8075 62.8698 40.59L62.5585 40.3828L61.891 39.9403C61.4166 39.6131 60.9544 39.2709 60.4998 38.9231L60.1866 38.6756C55.3426 34.8516 51.5026 29.6241 49.6773 23.6972C47.7638 17.55 48.1763 10.65 51.4913 5.04938L47.4169 10.7991ZM65.4104 4.56375C62.4723 8.8875 62.1835 14.2584 64.2226 19.0341C66.3723 24.1031 70.7776 28.0791 75.9198 29.9653L76.5591 30.1856L76.8404 30.2756C77.1432 30.3712 77.4441 30.4819 77.7573 30.54C91.9669 33.2859 95.821 23.2491 96.8466 21.7706C93.4707 26.6316 87.7969 27.7987 80.8351 26.1084C80.2857 25.9753 79.681 25.7766 79.1513 25.5881C78.4716 25.3453 77.8023 25.0697 77.1507 24.7575C75.9151 24.1631 74.7366 23.4431 73.6435 22.6181C67.4138 17.8912 63.5448 8.87531 67.6098 1.53188" fill="#0868AC"/>
<path d="M62.2115 90.2766H58.2496C58.0302 90.2766 57.8118 90.4528 57.7649 90.6675L56.3587 97.1738L54.9524 103.68C54.9065 103.895 54.6881 104.071 54.4687 104.071H51.6646C48.8906 104.071 49.2112 102.152 49.7793 99.5231L49.7962 99.4434L49.8581 99.1116L49.8693 99.0497L49.9959 98.3747L50.1318 97.6519L50.2762 96.9159L50.9156 93.7922L51.5559 90.6684C51.5999 90.4528 51.4556 90.2756 51.2362 90.2756H47.1702C46.9509 90.2756 46.7334 90.4519 46.6884 90.6675L45.8137 94.815L44.9399 98.9634L44.9381 98.9691L44.8574 99.3553C43.8506 103.952 44.1168 108.337 49.5899 108.474L49.7493 108.477H58.3396C58.559 108.477 58.7774 108.301 58.8234 108.086L60.6759 99.3778L62.5284 90.6684C62.5743 90.4528 62.4318 90.2775 62.2115 90.2766ZM19.784 90.2306H15.434C15.2137 90.2306 14.9943 90.4069 14.9456 90.6206L14.5331 92.4412L14.1206 94.2619C14.0727 94.4766 14.2124 94.6519 14.4327 94.6519H18.8165C19.0368 94.6519 19.2552 94.4756 19.3021 94.2609L19.7006 92.4412L20.099 90.6216C20.1449 90.4069 20.0043 90.2306 19.784 90.2306ZM18.5221 95.8969H14.1374C13.9181 95.8969 13.6977 96.0731 13.649 96.2869L13.0331 99.015L12.4181 101.742L12.2465 102.524L11.6549 105.308L11.0643 108.094C11.0184 108.308 10.9237 108.655 10.8534 108.863C10.8534 108.863 10.034 111.301 8.65681 111.273L8.48431 111.269L7.29274 111.248H7.29181C7.07243 111.245 6.85212 111.416 6.80056 111.629L6.34587 113.541L5.89212 115.451C5.84056 115.665 5.97931 115.841 6.19774 115.845C6.97868 115.854 8.72806 115.874 9.78649 115.874C13.2262 115.874 15.0402 113.968 16.2018 108.484L17.5621 102.189L18.8381 96.2859C18.884 96.0731 18.7415 95.8969 18.5221 95.8969ZM99.2568 94.4213L99.0749 93.6703L98.8959 92.9016L98.8049 92.5134C98.4487 91.1288 97.4034 90.3309 95.1327 90.3309L91.5984 90.3272L88.3434 90.3225H84.6806C84.4612 90.3225 84.2437 90.4988 84.1977 90.7134L84.0356 91.4784L83.8443 92.3822L83.7909 92.6362L82.1418 100.361L80.5762 107.694C80.5293 107.91 80.5143 108.174 80.5406 108.281C80.5668 108.389 80.9896 108.477 81.209 108.477H84.5127C84.7331 108.477 85.0115 108.438 85.1315 108.389C85.2515 108.34 85.4287 107.908 85.4727 107.693L86.0596 104.788L86.6474 101.882L86.6484 101.877L86.7271 101.49L87.4396 98.1525L88.0687 95.205C88.1156 94.9903 88.3321 94.815 88.5515 94.8141L98.9474 94.8094C99.1677 94.8112 99.3065 94.6359 99.2568 94.4213ZM112.64 87.6338L111.839 87.6366H108.512C108.291 87.6366 108.009 87.7856 107.886 87.9675L100.528 98.7469C100.404 98.9288 100.263 98.9025 100.214 98.6888L99.6721 96.3141C99.6234 96.0994 99.4031 95.9241 99.1827 95.9241H94.4531C94.2327 95.9241 94.1024 96.0966 94.1624 96.3075L96.2821 103.733C96.3421 103.945 96.3468 104.292 96.2924 104.506L95.369 108.099C95.3137 108.313 95.4487 108.487 95.669 108.487H100.344C100.564 108.487 100.789 108.312 100.843 108.099L101.767 104.506C101.822 104.291 101.975 103.974 102.108 103.798L114.053 87.9441C114.186 87.7678 114.114 87.6244 113.895 87.6263L112.64 87.6338ZM75.059 96.9328V96.9291C75.0318 97.1672 74.8115 97.3425 74.5912 97.3425H68.594C68.3859 97.3425 68.2809 97.2019 68.3118 97.0275L68.3174 97.0134L68.3137 97.0153L68.3165 96.9956L68.3437 96.8934C68.9165 95.3709 70.0827 94.3716 72.2756 94.3716C74.7449 94.3706 75.2268 95.5762 75.059 96.9328ZM73.2993 90.0103C65.6015 90.0103 63.7771 94.6828 62.7534 99.3994C61.7306 104.207 61.8177 108.7 69.7846 108.7H70.7502L70.9902 108.699H71.0465L72.0027 108.697H72.0196C74.1234 108.688 76.2337 108.672 77.0877 108.666C77.3062 108.662 77.5199 108.487 77.5649 108.272L77.8874 106.696L77.9502 106.389L78.3346 104.509C78.3787 104.294 78.2353 104.117 78.0149 104.117H70.8534C68.0043 104.117 67.1587 103.36 67.4709 101.135H78.9187L78.9177 101.136L78.9252 101.135C79.1071 101.132 79.2759 101.006 79.3424 100.839L79.3696 100.74L79.3687 100.741C81.0684 94.3294 80.5809 90.0113 73.2993 90.0103ZM36.9149 96.9084L36.8062 97.2919V97.2928L35.9418 100.357L35.0774 103.419C35.0184 103.632 34.7887 103.805 34.5684 103.805H29.9934C26.5227 103.805 25.6771 101.09 26.5227 97.0866C27.3674 92.9916 29.024 90.4462 32.4402 90.1884C37.109 89.8359 38.0427 93.1191 36.9149 96.9084ZM40.0537 103.569C40.0537 103.569 42.2109 98.3306 42.7002 95.3063C43.3687 91.2572 41.3409 85.3828 33.509 85.3828C25.7221 85.3828 22.3396 90.99 21.0496 97.0866C19.7596 103.227 21.4499 108.611 29.1927 108.567L35.3015 108.545L41.0099 108.524C41.2293 108.522 41.4543 108.348 41.5106 108.136L42.5052 104.343C42.5606 104.129 42.4265 103.955 42.2062 103.953L41.2527 103.947L40.2993 103.942C40.1127 103.941 40.0059 103.819 40.0284 103.658L40.0537 103.569ZM78.6037 100.062C78.6037 100.208 78.4865 100.326 78.3412 100.326C78.1968 100.326 78.0787 100.208 78.0787 100.062C78.0787 99.9178 78.1959 99.8006 78.3412 99.8006C78.4865 99.8006 78.6037 99.9178 78.6037 100.062Z" fill="white"/>
</svg>
