<svg width="120" height="120" viewBox="0 0 120 120" fill="none" xmlns="http://www.w3.org/2000/svg">
<g clip-path="url(#clip0_12:17)">
<path d="M98.1003 94.7001L71.5503 47.55L98.7503 96.05C98.5503 95.6 98.3503 95.1501 98.1003 94.7001Z" fill="black"/>
<path d="M119.25 101.8C117.5 104.85 113.65 105 112.9 105H95.7C99.3 105 101.55 101.1 99.8 97.95L99.75 97.9H112.5L77.8 36.4L71.55 47.55L67.5 40.4L72.05 32.35C73.85 29.1 76.15 28.4 77.75 28.4C81.25 28.4 83.3 31.7 83.65 32.35L118.75 94.8C120.6 98.05 120.05 100.4 119.25 101.8Z" fill="#3B8070"/>
<path d="M67.4997 40.4L63.4497 47.55L49.6497 23L7.49966 97.9H34.9997L34.9497 97.95C33.1497 101.1 35.4497 105 39.0497 105H6.99966C3.24966 105 1.54966 103.35 0.749656 101.95C-1.00034 98.9 0.799656 95.45 1.14966 94.8L43.8497 18.95C45.6997 15.7 47.9497 15 49.5497 15C53.0497 15 55.0997 18.3 55.4497 18.9L67.4997 40.4Z" fill="#41B883"/>
<path d="M98.075 93.92L98.0801 93.9303L98.075 93.92Z" fill="black"/>
<path d="M99.2647 97.045C99.2841 97.045 99.2997 97.0428 99.2997 97.04C99.2997 97.0373 99.2841 97.035 99.2647 97.035C99.2454 97.035 99.2297 97.0373 99.2297 97.04C99.2297 97.0428 99.2454 97.045 99.2647 97.045Z" fill="black"/>
<path d="M98.1198 94.0001L98.0798 93.9301L98.0948 93.9601L98.1198 94.0001Z" fill="black"/>
<path d="M98.8 96.2C99 96.75 99.2 97.3 99.3 97.9H99.75L98.8 96.2ZM35.85 97.9V97.8C36.05 96.7 36.4 95.7 36.9 94.8L62.8 48.75L35 97.9H35.85Z" fill="black"/>
<path d="M99.8 97.95L99.75 97.9H99.3C99.2 97.3 99 96.75 98.8 96.2L98.75 96.0499L71.55 47.55L67.5 40.3999L63.45 47.55L62.8 48.7499L36.9 94.7999C36.4 95.6999 36.05 96.7 35.85 97.7999V97.9H35L34.95 97.95C33.15 101.1 35.45 105 39.05 105H95.7C99.3 105 101.55 101.1 99.8 97.95ZM43.2 97.9L67.5 54.6999L91.8 97.9H43.2Z" fill="#35495E"/>
</g>
<defs>
<clipPath id="clip0_12:17">
<rect width="120" height="120" fill="white"/>
</clipPath>
</defs>
</svg>
