<svg width="159" height="120" viewBox="0 0 159 120" fill="none" xmlns="http://www.w3.org/2000/svg">
<g clip-path="url(#clip0_12:40)">
<path d="M136.827 68.9375C131.268 68.9691 126.454 70.3125 122.417 72.3128C120.927 69.3441 119.436 66.75 119.188 64.8128C118.909 62.5628 118.567 61.1875 118.909 58.5003C119.25 55.8125 120.803 52 120.803 51.6875C120.771 51.4063 120.461 50.0313 117.262 50C114.064 49.9688 111.3 50.625 110.989 51.4688C110.679 52.3125 110.058 54.25 109.654 56.25C109.095 59.1875 103.257 69.5938 99.9338 75.0625C98.8469 72.9375 97.9152 71.0625 97.7286 69.5622C97.4494 67.3125 97.1075 65.9372 97.4494 63.25C97.791 60.5622 99.3437 56.75 99.3437 56.4375C99.3127 56.1563 99.0021 54.7813 95.8038 54.75C92.6049 54.7188 89.8413 55.375 89.5308 56.2188C89.2202 57.0625 88.8786 59.0625 88.1954 61C87.543 62.9375 79.7793 80.3125 77.7607 84.8438C76.7359 87.1563 75.8357 89 75.1832 90.25C74.531 91.5 75.1521 90.3438 75.09 90.4688C74.531 91.5313 74.2205 92.125 74.2205 92.125V92.1566C73.7857 92.9378 73.3199 93.6875 73.1022 93.6875C72.9469 93.6875 72.6364 91.5938 73.1643 88.7191C74.3133 82.6875 77.1083 73.2816 77.0775 72.9378C77.0775 72.7816 77.6051 71.125 75.276 70.2816C73.0091 69.4378 72.2019 70.8441 72.0153 70.8441C71.829 70.8441 71.6737 71.3441 71.6737 71.3441C71.6737 71.3441 74.1891 60.7506 66.8602 60.7506C62.2641 60.7506 55.929 65.7819 52.7924 70.3756C50.8049 71.4694 46.5815 73.7816 42.1096 76.2506C40.4016 77.1881 38.6315 78.1881 36.9546 79.0944L36.6133 78.7188C27.7316 69.1875 11.3037 62.4375 11.9869 49.625C12.2353 44.9688 13.8502 32.6875 43.5388 17.8125C67.8546 5.62501 87.3259 8.96876 90.7105 16.4063C95.524 27.0313 80.3072 46.7813 55.029 49.625C45.4021 50.7188 40.3398 46.9688 39.0669 45.5625C37.7315 44.0938 37.5452 44.0313 37.0483 44.3125C36.2409 44.75 36.7378 46.0625 37.0483 46.8438C37.7937 48.8125 40.8991 52.3125 46.1784 54.0625C50.8053 55.5938 62.1095 56.4375 75.7735 51.125C91.0835 45.1563 103.04 28.5938 99.5304 14.75C95.9591 0.656256 72.7302 -3.96875 50.7745 3.87501C37.7002 8.56251 23.5392 15.875 13.3533 25.4688C1.24197 36.8438 -0.683417 46.7813 0.124005 50.9063C2.95029 65.625 23.1045 75.2188 31.1787 82.3125C30.775 82.531 30.4023 82.7497 30.0607 82.9375C26.0236 84.9372 10.6515 93.0313 6.80076 101.593C2.45311 111.281 7.48397 118.25 10.8379 119.188C21.2101 122.094 31.8308 116.875 37.576 108.281C43.2897 99.6875 42.6068 88.5313 39.9672 83.4375L39.8737 83.25L43.0413 81.375C45.0912 80.1563 47.1098 79.0313 48.8796 78.0622C47.8861 80.781 47.1716 83.9997 46.7992 88.6872C46.3644 94.1875 48.6004 101.312 51.5506 104.125C52.8549 105.343 54.4076 105.375 55.3703 105.375C58.7863 105.375 60.3391 102.531 62.0471 99.1247C64.1588 94.9685 66.0221 90.156 66.0221 90.156C66.0221 90.156 63.693 103.187 70.0592 103.187C72.3883 103.187 74.7174 100.156 75.7732 98.5935V98.6247C75.7732 98.6247 75.8353 98.531 75.9596 98.3122C76.0899 98.1183 76.2141 97.9204 76.3322 97.7188V97.6563C77.2639 96.0313 79.3445 92.3125 82.45 86.1563C86.4557 78.2188 90.3068 68.2813 90.3068 68.2813C90.3068 68.2813 90.6795 70.7188 91.8285 74.7188C92.5114 77.0941 94.002 79.6875 95.151 82.2188C94.2194 83.5313 93.6604 84.2816 93.6604 84.2816L93.6915 84.3128C92.9465 85.3128 92.1077 86.3756 91.2385 87.4378C88.0709 91.2503 84.2822 95.5944 83.7853 96.8444C83.1953 98.3128 83.3195 99.4066 84.4685 100.282C85.307 100.907 86.7976 101.032 88.3814 100.907C91.2385 100.719 93.226 100.001 94.2197 99.5628C95.7724 99.0003 97.5426 98.1566 99.2506 96.9066C102.356 94.5944 104.25 91.3131 104.064 86.9381C103.971 84.5319 103.195 82.1569 102.232 79.9069C102.511 79.5006 102.791 79.0941 103.07 78.6569C107.977 71.4378 111.766 63.5006 111.766 63.5006C111.766 63.5006 112.138 65.9381 113.287 69.9381C113.877 71.9694 115.057 74.1885 116.113 76.376C111.517 80.1572 108.629 84.5322 107.635 87.4072C105.803 92.7197 107.232 95.126 109.933 95.6885C111.144 95.9385 112.884 95.376 114.188 94.8135C115.802 94.2822 117.759 93.3756 119.56 92.0322C122.666 89.7197 125.647 86.501 125.492 82.1572C125.399 80.1572 124.871 78.1885 124.156 76.3135C128.069 74.6885 133.131 73.751 139.56 74.5322C153.379 76.1572 156.112 84.8447 155.584 88.4697C155.056 92.095 152.168 94.0947 151.205 94.7197C150.242 95.3135 149.932 95.5325 150.025 95.9697C150.149 96.6263 150.584 96.5947 151.422 96.47C152.571 96.2822 158.689 93.5013 158.938 86.8141C159.31 78.2191 151.205 68.8441 136.827 68.9375ZM30.2471 105.094C25.682 110.125 19.2537 112.031 16.5209 110.406C13.5707 108.688 14.7194 101.281 20.3406 95.9375C23.7566 92.6875 28.1974 89.6875 31.1166 87.8438C31.7687 87.4375 32.7625 86.8441 33.9426 86.125C34.1289 86.0003 34.2531 85.9375 34.2531 85.9375C34.4705 85.8125 34.7189 85.6563 34.9674 85.5C37.048 93.125 35.0605 99.8125 30.2471 105.094ZM63.6308 82.25C62.0471 86.1563 58.6931 96.1875 56.6746 95.625C54.9352 95.1563 53.8797 87.5625 56.3327 80.0625C57.5749 76.281 60.2145 71.7813 61.7673 70.031C64.283 67.2185 67.0155 66.281 67.699 67.4372C68.5064 68.9375 64.6246 79.8125 63.6308 82.25ZM91.1764 95.5C90.4932 95.8441 89.8721 96.0938 89.5926 95.9066C89.3752 95.7816 89.8717 95.3128 89.8717 95.3128C89.8717 95.3128 93.3188 91.5941 94.6852 89.8753C95.4616 88.8757 96.3932 87.7194 97.387 86.4066V86.7816C97.3873 91.2813 93.1018 94.2813 91.1764 95.5ZM112.417 90.625C111.921 90.25 111.983 89.0938 113.66 85.4688C114.312 84.0313 115.802 81.625 118.38 79.3438C118.691 80.2813 118.877 81.1872 118.846 82.0313C118.815 87.6563 114.84 89.75 112.417 90.625Z" fill="#CF649A"/>
</g>
<defs>
<clipPath id="clip0_12:40">
<rect width="159" height="120" fill="white"/>
</clipPath>
</defs>
</svg>
