<svg width="32" height="32" viewBox="0 0 32 32" fill="none" xmlns="http://www.w3.org/2000/svg">
<rect width="32" height="32" fill="black"/>
<path d="M18.4477 6.04C19.7077 6.04 20.7484 6.16133 21.5697 6.404C22.391 6.64667 23.035 6.978 23.5017 7.398C23.9684 7.818 24.295 8.29867 24.4817 8.84C24.6777 9.372 24.7757 9.932 24.7757 10.52C24.7757 11.108 24.6684 11.6727 24.4537 12.214C24.239 12.746 23.8844 13.222 23.3897 13.642C22.9044 14.062 22.2557 14.3933 21.4437 14.636C20.641 14.8787 19.6424 15 18.4477 15H8.3677V6.04H18.4477ZM11.8677 12.2H18.3077C18.8304 12.2 19.2737 12.1673 19.6377 12.102C20.0017 12.0273 20.291 11.92 20.5057 11.78C20.7297 11.64 20.8884 11.4673 20.9817 11.262C21.0844 11.0473 21.1357 10.8 21.1357 10.52C21.1357 10.24 21.0844 9.99733 20.9817 9.792C20.8884 9.57733 20.7297 9.4 20.5057 9.26C20.291 9.12 20.0017 9.01733 19.6377 8.952C19.2737 8.87733 18.8304 8.84 18.3077 8.84H11.8677V12.2ZM17.5355 24.936H15.4355L23.0795 17.04H26.5795V26H23.0795V19.896L24.1295 20.33L18.5995 26H14.3995L8.85545 20.344L9.91945 19.91V26H6.41945V17.04H9.91945L17.5355 24.936Z" fill="#3C67FF"/>
</svg>
